<svg xmlns="http://www.w3.org/2000/svg" viewBox="0 0 474.71 109.91" width="474.71" height="109.91">
  <defs>
    <linearGradient id="gradLight2" gradientUnits="userSpaceOnUse" x1="6.00" y1="25.00" x2="461.68" y2="105.35">
      <stop offset="25%" stop-color="#1a202c"/>
      <stop offset="55%" stop-color="#c2703d"/>
      <stop offset="80%" stop-color="#c0392b"/>
    </linearGradient>
  </defs>
  <g fill="url(#gradLight2)">
    <g><path d="M19.023223082336383 41.32582688247713 23.62280084447572 42.02111189303307V44.0H6.0V42.02111189303307L10.599577762139338 41.32582688247713V10.813511611541166L6.0 10.091484869809996V8.139338494018297H23.62280084447572V10.091484869809996L19.023223082336383 10.813511611541166Z"/><path d="M36.99366643209008 41.59324419422941 39.74806474313864 42.235045742434906V44.0H26.537649542575654V42.235045742434906L29.265306122448983 41.59324419422941V8.406755805770587L26.698099929627027 7.764954257565094V6.0H36.99366643209008Z"/><path d="M66.70372976776918 24.07741027445461Q69.59183673469387 20.868402533427165 71.87825475017593 19.464461646727656Q74.16467276565798 18.06052076002815 76.06333567909923 18.06052076002815H77.50738916256157V27.2329345531316H76.00985221674877L74.43209007741027 23.86347642505278Q72.74736101337086 23.86347642505278 70.60802251935257 24.59887403237157Q68.46868402533427 25.33427163969036 66.83743842364532 26.32371569317382V41.59324419422941L70.87543983110486 42.235045742434906V44.0H55.846586910626314V42.235045742434906L59.10907811400422 41.59324419422941V21.269528501055596L55.846586910626314 20.627726952850107V18.86277269528501H66.40957072484166Z"/><path d="M90.34342012667136 41.59324419422941 93.09781843771991 42.235045742434906V44.0H79.88740323715693V42.235045742434906L82.61505981703026 41.59324419422941V21.269528501055596L80.0478536242083 20.627726952850107V18.86277269528501H90.34342012667136ZM82.34764250527797 10.091484869809996Q82.34764250527797 8.35327234342013 83.56439127375089 7.176636171710065Q84.78114004222378 6.0 86.4658691062632 6.0Q88.17733990147784 6.0 89.36734693877551 7.190007037297679Q90.55735397607319 8.380014074595358 90.55735397607319 10.091484869809996Q90.55735397607319 11.776213933849405 89.38071780436312 12.99296270232231Q88.20408163265306 14.209711470795217 86.4658691062632 14.209711470795217Q84.75439831104856 14.209711470795217 83.55102040816327 13.01970443349754Q82.34764250527797 11.829697396199862 82.34764250527797 10.091484869809996Z"/><path d="M113.87614356087262 36.03096410978184Q113.87614356087262 40.22941590429275 111.29556650246305 42.38212526389866Q108.71498944405347 44.53483462350457 103.7945109078114 44.53483462350457Q101.76213933849401 44.53483462350457 99.31527093596058 44.093596059113295Q96.86840253342716 43.652357494722025 95.61154116819141 43.17100633356791V36.32512315270936H97.3764954257565L98.39268121041519 39.85503166783955Q99.3286418015482 40.79099225897255 100.85292047853623 41.419422941590426Q102.37719915552427 42.0478536242083 103.95496129486277 42.0478536242083Q106.28149190710766 42.0478536242083 107.41801548205488 41.04503870513723Q108.5545390570021 40.04222378606615 108.5545390570021 38.491203377902885Q108.5545390570021 37.02040816326531 107.45812807881772 36.13793103448276Q106.36171710063334 35.25545390570021 102.67135819845178 34.10555946516538Q98.79380717804362 32.902181562280084 97.17593244194228 30.816326530612244Q95.55805770584095 28.730471498944404 95.55805770584095 25.68191414496833Q95.55805770584095 22.258972554539056 98.09852216748769 20.226600985221673Q100.63898662913441 18.194229415904292 104.6502463054187 18.194229415904292Q107.40464461646727 18.194229415904292 112.05770584095707 18.969739619985926V25.414496833216045H110.29275158339198L109.43701618578466 22.472906403940886Q108.66150598170302 21.697396199859256 107.25756509500351 21.202674173117522Q105.85362420830401 20.707952146375792 104.59676284306826 20.707952146375792Q102.67135819845178 20.707952146375792 101.74876847290639 21.49683321604504Q100.82617874736101 22.285714285714285 100.82617874736101 23.64954257565095Q100.82617874736101 25.066854327938074 101.97607318789585 25.97607318789585Q103.12596762843067 26.885292047853625 106.70935960591132 27.954961294862773Q110.61365235749471 29.158339197748063 112.24489795918367 31.123856439127373Q113.87614356087262 33.08937368050668 113.87614356087262 36.03096410978184Z"/><path d="M138.15763546798027 42.47572132301196Q136.954257565095 43.4384236453202 134.8282899366643 43.97325826882477Q132.70232230823362 44.508092892329344 130.45601688951442 44.508092892329344Q123.74384236453201 44.508092892329344 120.41449683321603 41.272343420126674Q117.08515130190005 38.036593947924 117.08515130190005 31.37790288529205Q117.08515130190005 27.2329345531316 118.59605911330047 24.277973258268826Q120.1069669247009 21.323011963406053 122.91484869809992 19.758620689655174Q125.72273047149893 18.194229415904292 129.43983110485573 18.194229415904292Q133.18367346938774 18.194229415904292 137.59605911330047 19.1301900070373V26.56439127375088H135.670654468684L134.5475017593244 22.152005629838143Q133.63828289936663 21.483462350457426 132.7558057705841 21.21604503870514Q131.87332864180155 20.94862772695285 130.42927515833918 20.94862772695285Q128.8515130190007 20.94862772695285 127.5679099225897 22.2054890921886Q126.28430682617874 23.46235045742435 125.57565095003517 25.748768472906406Q124.86699507389162 28.03518648838846 124.86699507389162 31.217452498240675Q124.86699507389162 36.59254046446165 126.53835327234341 38.892329345531316Q128.2097114707952 41.19211822660098 131.8465869106263 41.19211822660098Q135.53694581280786 41.19211822660098 138.15763546798027 40.416608022519355Z"/><path d="M154.12244897959184 18.30119634060521Q163.56228008444756 18.30119634060521 163.56228008444756 25.254046446164672V41.59324419422941L166.07600281491906 42.235045742434906V44.0H156.82336382828993L156.23504574243492 42.074595355383536Q154.14919071076707 43.491907107670656 152.46446164672767 44.01337086558762Q150.77973258268824 44.53483462350457 149.0682617874736 44.53483462350457Q141.28641801548207 44.53483462350457 141.28641801548207 37.04714989444054Q141.28641801548207 34.21252638986629 142.43631245601688 32.514426460239264Q143.58620689655172 30.816326530612244 145.75228712174524 30.00070372976777Q147.91836734693877 29.185080928923295 152.57142857142858 29.07811400422238L155.83391977480647 28.997888810696693V25.33427163969036Q155.83391977480647 20.78817733990148 152.1168191414497 20.78817733990148Q149.87051372273046 20.78817733990148 147.0893736805067 22.17874736101337L146.073187895848 25.307529908515132H144.3082336382829V19.237156931738213Q148.34623504574245 18.62209711470795 150.24489795918367 18.46164672765658Q152.1435608726249 18.30119634060521 154.12244897959184 18.30119634060521ZM155.83391977480647 31.37790288529205 153.58761435608727 31.458128078817737Q150.99366643209007 31.56509500351865 149.99085151301898 32.8219563687544Q148.98803659394792 34.07881773399015 148.98803659394792 36.88669950738916Q148.98803659394792 39.159746657283605 149.7902885292048 40.22941590429275Q150.59254046446165 41.2990851513019 151.87614356087263 41.2990851513019Q153.69458128078819 41.2990851513019 155.83391977480647 40.3631245601689Z"/><path d="M178.43068261787474 41.59324419422941 181.1850809289233 42.235045742434906V44.0H167.97466572836032V42.235045742434906L170.70232230823365 41.59324419422941V8.406755805770587L168.13511611541168 7.764954257565094V6.0H178.43068261787474Z"/><path d="M201.72273047149892 42.58268824771288Q200.2251935256861 43.54539057002111 199.42294159042925 43.85292047853624Q198.62068965517238 44.16045038705137 197.6045038705137 44.347642505277975Q196.588318085855 44.53483462350457 195.3581984517945 44.53483462350457Q189.79591836734693 44.53483462350457 187.0682617874736 41.33919774806474Q184.34060520760028 38.14356087262491 184.34060520760028 31.511611541168193Q184.34060520760028 24.986629134412386 187.26882477128783 21.59042927515834Q190.19704433497535 18.194229415904292 195.7593244194229 18.194229415904292Q198.67417311752286 18.194229415904292 201.64250527797324 18.91625615763547Q201.48205489092186 18.033779028852923 201.48205489092186 14.771287825475017V8.406755805770587L198.91484869809992 7.764954257565094V6.0H209.21041520056298V41.59324419422941L211.9648135116115 42.235045742434906V44.0H202.28430682617872ZM192.17593244194228 31.29767769176636Q192.17593244194228 36.29838142153413 193.43279380717803 38.93244194229416Q194.68965517241378 41.566502463054185 197.0429275158339 41.566502463054185Q199.18226600985219 41.566502463054185 201.48205489092186 40.416608022519355V21.483462350457426Q199.39619985925404 20.92188599577762 197.25686136523572 20.92188599577762Q194.85010555946513 20.92188599577762 193.5130190007037 23.555946516537652Q192.17593244194228 26.19000703729768 192.17593244194228 31.29767769176636Z"/><path d="M227.18085855031666 18.30119634060521Q236.62068965517238 18.30119634060521 236.62068965517238 25.254046446164672V41.59324419422941L239.13441238564388 42.235045742434906V44.0H229.88177339901475L229.2934553131597 42.074595355383536Q227.2076002814919 43.491907107670656 225.52287121745246 44.01337086558762Q223.83814215341306 44.53483462350457 222.12667135819842 44.53483462350457Q214.3448275862069 44.53483462350457 214.3448275862069 37.04714989444054Q214.3448275862069 34.21252638986629 215.49472202674173 32.514426460239264Q216.64461646727653 30.816326530612244 218.81069669247006 30.00070372976777Q220.97677691766359 29.185080928923295 225.6298381421534 29.07811400422238L228.8923293455313 28.997888810696693V25.33427163969036Q228.8923293455313 20.78817733990148 225.17522871217452 20.78817733990148Q222.92892329345528 20.78817733990148 220.14778325123152 22.17874736101337L219.13159746657283 25.307529908515132H217.36664320900772V19.237156931738213Q221.40464461646727 18.62209711470795 223.3033075299085 18.46164672765658Q225.20197044334972 18.30119634060521 227.18085855031666 18.30119634060521ZM228.8923293455313 31.37790288529205 226.6460239268121 31.458128078817737Q224.05207600281489 31.56509500351865 223.04926108374383 32.8219563687544Q222.04644616467274 34.07881773399015 222.04644616467274 36.88669950738916Q222.04644616467274 39.159746657283605 222.8486980999296 40.22941590429275Q223.65095003518647 41.2990851513019 224.93455313159745 41.2990851513019Q226.752990851513 41.2990851513019 228.8923293455313 40.3631245601689Z"/><path d="M251.56931738212523 21.055594651653767 253.38775510204079 20.11963406052076Q257.1315974665728 18.194229415904292 260.0999296270232 18.194229415904292Q264.59254046446165 18.194229415904292 266.09007741027443 21.456720619282198Q271.57213230119635 18.194229415904292 275.3427163969036 18.194229415904292Q282.1351161154117 18.194229415904292 282.1351161154117 25.601688951442647V41.59324419422941L284.6488388458832 42.235045742434906V44.0H272.16045038705136V42.235045742434906L274.40675580577056 41.59324419422941V26.644616467276567Q274.40675580577056 24.398311048557353 273.53764954257565 23.141449683321603Q272.6685432793807 21.884588318085857 270.9035890218156 21.884588318085857Q268.9247009148487 21.884588318085857 266.624912033779 23.007741027445462Q266.89232934553127 24.130893736805067 266.89232934553127 25.601688951442647V41.59324419422941L269.40605207600277 42.235045742434906V44.0H256.917663617171V42.235045742434906L259.1639690358902 41.59324419422941V26.644616467276567Q259.1639690358902 24.398311048557353 258.2948627726953 23.141449683321603Q257.42575650950033 21.884588318085857 255.66080225193522 21.884588318085857Q253.89584799437014 21.884588318085857 251.6228008444757 22.927515833919777V41.59324419422941L253.92258972554538 42.235045742434906V44.0H241.43420126671356V42.235045742434906L243.89444053483462 41.59324419422941V21.269528501055596L241.43420126671356 20.627726952850107V18.86277269528501H251.19493314567205Z"/><path d="M298.7952146375792 18.247712878254752Q303.90288529204787 18.247712878254752 306.18930330752994 20.97536945812808Q308.475721323012 23.703026038001408 308.475721323012 29.45249824067558V31.645320197044335H295.29204785362424V32.073187895847994Q295.29204785362424 36.05770584095707 295.9338494018297 37.74243490499648Q296.5756509500352 39.42716396903589 298.01970443349757 40.309641097818435Q299.46375791695993 41.19211822660098 301.97748064743143 41.19211822660098Q304.3307529908515 41.19211822660098 307.9141449683322 40.416608022519355V42.47572132301196Q306.44334975369463 43.35819845179451 304.1034482758621 43.933145672061926Q301.7635467980296 44.508092892329344 299.5439831104856 44.508092892329344Q293.36664320900775 44.508092892329344 290.411681914145 41.285714285714285Q287.45672061928224 38.063335679099225 287.45672061928224 31.29767769176636Q287.45672061928224 24.7192118226601 290.27797325826884 21.483462350457426Q293.0992258972555 18.247712878254752 298.7952146375792 18.247712878254752ZM298.5010555946517 20.94862772695285Q296.89655172413796 20.94862772695285 296.10767065446873 22.686840253342716Q295.31878958479945 24.42505277973258 295.31878958479945 28.83743842364532H301.14848698099934Q301.14848698099934 25.254046446164672 300.90781140042225 23.796622097114707Q300.6671358198452 22.339197748064745 300.09218859957775 21.6439127375088Q299.51724137931035 20.94862772695285 298.5010555946517 20.94862772695285Z"/><path d="M321.49894440534837 21.055594651653767 323.3173821252639 20.11963406052076Q327.06122448979596 18.194229415904292 330.0562983814216 18.194229415904292Q337.009148486981 18.194229415904292 337.009148486981 25.601688951442647V41.59324419422941L339.5228712174525 42.235045742434906V44.0H327.0344827586207V42.235045742434906L329.28078817733996 41.59324419422941V26.644616467276567Q329.28078817733996 24.398311048557353 328.3314567206193 23.141449683321603Q327.3821252638987 21.884588318085857 325.6171710063336 21.884588318085857Q323.5847994370162 21.884588318085857 321.55242786769884 22.793807178043632V41.59324419422941L323.8522167487685 42.235045742434906V44.0H311.3638282899367V42.235045742434906L313.8240675580577 41.59324419422941V21.269528501055596L311.3638282899367 20.627726952850107V18.86277269528501H321.1245601688952Z"/><path d="M352.0647431386348 44.53483462350457Q348.4546094299789 44.53483462350457 346.4890921885996 42.90358902181562Q344.5235749472203 41.272343420126674 344.5235749472203 38.197044334975374V21.6439127375088H341.2343420126672V19.90570021111893L345.1118930330753 18.86277269528501L348.2406755805771 13.166783954961296H352.2519352568614V18.86277269528501H357.54679802955667V21.6439127375088H352.2519352568614V37.71569317382125Q352.2519352568614 39.453905700211116 352.9739619985926 40.33638282899366Q353.69598874032374 41.21885995777622 354.8726249120338 41.21885995777622Q356.2899366643209 41.21885995777622 358.34904996481356 40.79099225897255V43.064039408866996Q357.54679802955667 43.6256157635468 355.60802251935263 44.080225193525685Q353.66924700914853 44.53483462350457 352.0647431386348 44.53483462350457Z"/><path d="M383.88740323715695 31.29767769176636Q383.88740323715695 38.063335679099225 380.9859254046446 41.299085151301895Q378.0844475721323 44.53483462350457 372.12104152005634 44.53483462350457Q366.3448275862069 44.53483462350457 363.51020408163265 41.258972554539056Q360.67558057705844 37.98311048557354 360.67558057705844 31.29767769176636Q360.67558057705844 24.638986629134415 363.5503166783955 21.416608022519355Q366.4250527797326 18.194229415904292 372.33497536945816 18.194229415904292Q378.29838142153415 18.194229415904292 381.09289232934555 21.52357494722027Q383.88740323715695 24.85292047853624 383.88740323715695 31.29767769176636ZM376.05207600281494 31.29767769176636Q376.05207600281494 25.414496833216045 375.18296973962003 23.15482054890922Q374.31386347642507 20.895144264602393 372.17452498240675 20.895144264602393Q370.11541168191417 20.895144264602393 369.31315974665733 23.06122448979592Q368.51090781140044 25.227304714989444 368.51090781140044 31.29767769176636Q368.51090781140044 37.475017593244196 369.32653061224494 39.66783954961295Q370.1421534130894 41.8606615059817 372.17452498240675 41.8606615059817Q374.28712174524986 41.8606615059817 375.16959887403243 39.54750175932442Q376.05207600281494 37.234342012667135 376.05207600281494 31.29767769176636Z"/><path d="M419.26671358198456 42.58268824771288Q417.7691766361717 43.54539057002111 416.9669247009149 43.85292047853624Q416.164672765658 44.16045038705137 415.14848698099934 44.347642505277975Q414.1323011963406 44.53483462350457 412.90218156228013 44.53483462350457Q407.33990147783254 44.53483462350457 404.6122448979592 41.33919774806474Q401.8845883180859 38.14356087262491 401.8845883180859 31.511611541168193Q401.8845883180859 24.986629134412386 404.81280788177344 21.59042927515834Q407.741027445461 18.194229415904292 413.3033075299085 18.194229415904292Q416.21815622800847 18.194229415904292 419.1864883884588 18.91625615763547Q419.02603800140747 18.033779028852923 419.02603800140747 14.771287825475017V8.406755805770587L416.4588318085855 7.764954257565094V6.0H426.7543983110486V41.59324419422941L429.5087966220971 42.235045742434906V44.0H419.82828993666436ZM409.7199155524279 31.29767769176636Q409.7199155524279 36.29838142153413 410.97677691766364 38.93244194229416Q412.2336382828994 41.566502463054185 414.58691062631954 41.566502463054185Q416.7262491203378 41.566502463054185 419.02603800140747 40.416608022519355V21.483462350457426Q416.9401829697396 20.92188599577762 414.80084447572136 20.92188599577762Q412.39408866995075 20.92188599577762 411.0570021111893 23.555946516537652Q409.7199155524279 26.19000703729768 409.7199155524279 31.29767769176636Z"/><path d="M443.33427163969037 18.247712878254752Q448.44194229415905 18.247712878254752 450.7283603096411 20.97536945812808Q453.0147783251232 23.703026038001408 453.0147783251232 29.45249824067558V31.645320197044335H439.8311048557354V32.073187895847994Q439.8311048557354 36.05770584095707 440.4729064039409 37.74243490499648Q441.1147079521464 39.42716396903589 442.55876143560874 40.309641097818435Q444.0028149190711 41.19211822660098 446.5165376495426 41.19211822660098Q448.8698099929627 41.19211822660098 452.4532019704434 40.416608022519355V42.47572132301196Q450.9824067558058 43.35819845179451 448.6425052779733 43.933145672061926Q446.3026038001408 44.508092892329344 444.0830401125968 44.508092892329344Q437.9057002111189 44.508092892329344 434.95073891625617 41.285714285714285Q431.9957776213934 38.063335679099225 431.9957776213934 31.29767769176636Q431.9957776213934 24.7192118226601 434.8170302603801 21.483462350457426Q437.6382828993667 18.247712878254752 443.33427163969037 18.247712878254752ZM443.04011259676287 20.94862772695285Q441.43560872624914 20.94862772695285 440.64672765657986 22.686840253342716Q439.8578465869106 24.42505277973258 439.8578465869106 28.83743842364532H445.6875439831105Q445.6875439831105 25.254046446164672 445.4468684025335 23.796622097114707Q445.2061928219564 22.339197748064745 444.631245601689 21.6439127375088Q444.0562983814215 20.94862772695285 443.04011259676287 20.94862772695285Z"/><path d="M465.95777621393387 41.59324419422941 468.7121745249824 42.235045742434906V44.0H455.5017593244194V42.235045742434906L458.22941590429275 41.59324419422941V8.406755805770587L455.66220971147084 7.764954257565094V6.0H465.95777621393387Z"/></g>
    <g><path d="M27.446868402533426 78.13080577058409Q27.446868402533426 73.85212878254751 25.85573539760732 72.15402885292048Q24.264602392681212 70.45592892329346 20.2533427163969 70.45592892329346H18.140745953553836V86.36725897255454H20.36030964109782Q24.077410274454607 86.36725897255454 25.762139338494016 84.49533779028853Q27.446868402533426 82.62341660802252 27.446868402533426 78.13080577058409ZM18.140745953553836 89.30884940182969V100.70082688247713L24.104152005629835 101.4228536242083V103.375H5.4384236453201975V101.4228536242083L9.690358902181563 100.70082688247713V70.16176988036594L5.090781140042225 69.46648486980999V67.51433849401829H20.895144264602393Q28.516537649542578 67.51433849401829 32.28712174524982 70.06817382125263Q36.05770584095707 72.62200914848698 36.05770584095707 78.07732230823365Q36.05770584095707 89.30884940182969 22.954257565095006 89.30884940182969Z"/><path d="M49.268121041520054 100.96824419422941 52.022519352568615 101.6100457424349V103.375H38.81210415200563V101.6100457424349L41.53976073187896 100.96824419422941V80.64452850105559L38.972554539057 80.00272695285011V78.237772695285H49.268121041520054ZM41.272343420126674 69.46648486980999Q41.272343420126674 67.72827234342013 42.48909218859958 66.55163617171007Q43.70584095707248 65.375 45.39057002111189 65.375Q47.10204081632653 65.375 48.29204785362421 66.56500703729768Q49.48205489092189 67.75501407459535 49.48205489092189 69.46648486980999Q49.48205489092189 71.1512139338494 48.30541871921182 72.3679627023223Q47.12878254750176 73.58471147079521 45.39057002111189 73.58471147079521Q43.679099225897254 73.58471147079521 42.47572132301197 72.39470443349754Q41.272343420126674 71.20469739619986 41.272343420126674 69.46648486980999Z"/><path d="M66.03518648838846 77.62271287825476Q71.14285714285714 77.62271287825476 73.4292751583392 80.35036945812809Q75.71569317382125 83.07802603800141 75.71569317382125 88.82749824067558V91.02032019704433H62.5320197044335V91.448187895848Q62.5320197044335 95.43270584095707 63.17382125263899 97.11743490499649Q63.81562280084448 98.80216396903589 65.25967628430683 99.68464109781843Q66.70372976776918 100.56711822660098 69.21745249824068 100.56711822660098Q71.5707248416608 100.56711822660098 75.15411681914145 99.79160802251936V101.85072132301197Q73.68332160450387 102.73319845179451 71.34342012667136 103.30814567206193Q69.00351864883885 103.88309289232934 66.78395496129487 103.88309289232934Q60.60661505981703 103.88309289232934 57.65165376495426 100.66071428571428Q54.696692470091484 97.43833567909923 54.696692470091484 90.67267769176637Q54.696692470091484 84.0942118226601 57.51794510907811 80.85846235045743Q60.33919774806475 77.62271287825476 66.03518648838846 77.62271287825476ZM65.74102744546094 80.32362772695285Q64.13652357494722 80.32362772695285 63.347642505277975 82.06184025334272Q62.55876143560873 83.80005277973258 62.55876143560873 88.21243842364532H68.38845883180859Q68.38845883180859 84.62904644616466 68.14778325123153 83.1716220971147Q67.90710767065447 81.71419774806475 67.33216045038705 81.0189127375088Q66.75721323011963 80.32362772695285 65.74102744546094 80.32362772695285Z"/><path d="M88.73891625615764 80.43059465165376 90.55735397607319 79.49463406052075Q94.3011963406052 77.56922941590429 97.26952850105559 77.56922941590429Q101.76213933849401 77.56922941590429 103.25967628430682 80.8317206192822Q108.74173117522871 77.56922941590429 112.51231527093596 77.56922941590429Q119.30471498944405 77.56922941590429 119.30471498944405 84.97668895144264V100.96824419422941L121.81843771991555 101.6100457424349V103.375H109.33004926108373V101.6100457424349L111.57635467980295 100.96824419422941V86.01961646727656Q111.57635467980295 83.77331104855736 110.70724841660802 82.51644968332161Q109.83814215341309 81.25958831808586 108.073187895848 81.25958831808586Q106.09429978888106 81.25958831808586 103.7945109078114 82.38274102744546Q104.06192821956368 83.50589373680506 104.06192821956368 84.97668895144264V100.96824419422941L106.57565095003518 101.6100457424349V103.375H94.08726249120338V101.6100457424349L96.33356790992258 100.96824419422941V86.01961646727656Q96.33356790992258 83.77331104855736 95.46446164672764 82.51644968332161Q94.59535538353272 81.25958831808586 92.83040112596763 81.25958831808586Q91.06544686840253 81.25958831808586 88.7923997185081 82.30251583391978V100.96824419422941L91.09218859957775 101.6100457424349V103.375H78.60380014074595V101.6100457424349L81.06403940886699 100.96824419422941V80.64452850105559L78.60380014074595 80.00272695285011V78.237772695285H88.36453201970443Z"/><path d="M148.0520760028149 90.67267769176637Q148.0520760028149 97.43833567909923 145.1505981703026 100.67408515130191Q142.2491203377903 103.90983462350458 136.28571428571428 103.90983462350458Q130.5095003518649 103.90983462350458 127.67487684729063 100.63397255453907Q124.84025334271638 97.35811048557355 124.84025334271638 90.67267769176637Q124.84025334271638 84.01398662913442 127.71498944405347 80.79160802251936Q130.58972554539056 77.56922941590429 136.4996481351161 77.56922941590429Q142.4630541871921 77.56922941590429 145.2575650950035 80.89857494722027Q148.0520760028149 84.22792047853625 148.0520760028149 90.67267769176637ZM140.21674876847288 90.67267769176637Q140.21674876847288 84.78949683321605 139.34764250527797 82.52982054890921Q138.47853624208304 80.2701442646024 136.33919774806472 80.2701442646024Q134.2800844475721 80.2701442646024 133.47783251231527 82.43622448979592Q132.6755805770584 84.60230471498944 132.6755805770584 90.67267769176637Q132.6755805770584 96.85001759324419 133.49120337790288 99.04283954961295Q134.30682617874734 101.23566150598171 136.33919774806472 101.23566150598171Q138.4517945109078 101.23566150598171 139.33427163969034 98.92250175932443Q140.21674876847288 96.60934201266714 140.21674876847288 90.67267769176637Z"/><path d="M161.74384236453201 80.43059465165376 163.56228008444756 79.49463406052075Q167.30612244897958 77.56922941590429 170.3011963406052 77.56922941590429Q177.25404644616466 77.56922941590429 177.25404644616466 84.97668895144264V100.96824419422941L179.76776917663616 101.6100457424349V103.375H167.27938071780437V101.6100457424349L169.52568613652357 100.96824419422941V86.01961646727656Q169.52568613652357 83.77331104855736 168.57635467980296 82.51644968332161Q167.62702322308235 81.25958831808586 165.86206896551724 81.25958831808586Q163.82969739619986 81.25958831808586 161.79732582688248 82.16880717804364V100.96824419422941L164.09711470795216 101.6100457424349V103.375H151.60872624912034V101.6100457424349L154.0689655172414 100.96824419422941V80.64452850105559L151.60872624912034 80.00272695285011V78.237772695285H161.36945812807883Z"/><path d="M192.30964109781843 103.90983462350458Q188.69950738916256 103.90983462350458 186.73399014778323 102.27858902181563Q184.76847290640393 100.64734342012667 184.76847290640393 97.57204433497537V81.0189127375088H181.4792399718508V79.28070021111893L185.35679099225896 78.237772695285L188.48557353976074 72.54178395496129H192.49683321604505V78.237772695285H197.79169598874032V81.0189127375088H192.49683321604505V97.09069317382125Q192.49683321604505 98.82890570021112 193.2188599577762 99.71138282899366Q193.9408866995074 100.59385995777622 195.11752287121746 100.59385995777622Q196.53483462350457 100.59385995777622 198.59394792399718 100.16599225897255V102.43903940886699Q197.79169598874032 103.0006157635468 195.85292047853625 103.45522519352569Q193.91414496833215 103.90983462350458 192.30964109781843 103.90983462350458Z"/><path d="M212.04503870513722 77.62271287825476Q217.15270935960592 77.62271287825476 219.43912737508796 80.35036945812809Q221.72554539057 83.07802603800141 221.72554539057 88.82749824067558V91.02032019704433H208.54187192118226V91.448187895848Q208.54187192118226 95.43270584095707 209.18367346938777 97.11743490499649Q209.82547501759325 98.80216396903589 211.2695285010556 99.68464109781843Q212.71358198451793 100.56711822660098 215.22730471498943 100.56711822660098Q217.58057705840957 100.56711822660098 221.1639690358902 99.79160802251936V101.85072132301197Q219.69317382125263 102.73319845179451 217.35327234342012 103.30814567206193Q215.0133708655876 103.88309289232934 212.79380717804364 103.88309289232934Q206.6164672765658 103.88309289232934 203.66150598170304 100.66071428571428Q200.70654468684026 97.43833567909923 200.70654468684026 90.67267769176637Q200.70654468684026 84.0942118226601 203.5277973258269 80.85846235045743Q206.3490499648135 77.62271287825476 212.04503870513722 77.62271287825476ZM211.7508796622097 80.32362772695285Q210.146375791696 80.32362772695285 209.35749472202673 82.06184025334272Q208.5686136523575 83.80005277973258 208.5686136523575 88.21243842364532H214.39831104855736Q214.39831104855736 84.62904644616466 214.1576354679803 83.1716220971147Q213.91695988740324 81.71419774806475 213.3420126671358 81.0189127375088Q212.7670654468684 80.32362772695285 211.7508796622097 80.32362772695285Z"/></g>
  </g>
</svg>
